<mxfile host="65bd71144e">
    <diagram id="q747DER0Um33_L1rtJIN" name="PÃ¡gina-1">
        <mxGraphModel dx="1152" dy="960" grid="1" gridSize="10" guides="1" tooltips="1" connect="1" arrows="1" fold="1" page="1" pageScale="1" pageWidth="827" pageHeight="1169" math="0" shadow="0">
            <root>
                <mxCell id="0"/>
                <mxCell id="1" parent="0"/>
                <mxCell id="8" value="" style="edgeStyle=none;html=1;fontSize=19;" parent="1" source="2" target="7" edge="1">
                    <mxGeometry relative="1" as="geometry"/>
                </mxCell>
                <mxCell id="2" value="&lt;span style=&quot;font-size: 19px;&quot;&gt;INICIO&lt;/span&gt;" style="ellipse;whiteSpace=wrap;html=1;fillColor=#6a00ff;fontColor=#ffffff;strokeColor=#3700CC;" parent="1" vertex="1">
                    <mxGeometry x="460" y="10" width="120" height="80" as="geometry"/>
                </mxCell>
                <mxCell id="14" value="" style="edgeStyle=none;html=1;fontSize=19;" parent="1" source="7" target="13" edge="1">
                    <mxGeometry relative="1" as="geometry"/>
                </mxCell>
                <mxCell id="7" value="a,b" style="shape=parallelogram;perimeter=parallelogramPerimeter;whiteSpace=wrap;html=1;fixedSize=1;fontSize=19;fillColor=#a20025;fontColor=#ffffff;strokeColor=#6F0000;" parent="1" vertex="1">
                    <mxGeometry x="420" y="140" width="200" height="100" as="geometry"/>
                </mxCell>
                <mxCell id="13" value="a == b" style="rhombus;whiteSpace=wrap;html=1;fontSize=19;fillColor=#60a917;fontColor=#ffffff;strokeColor=#2D7600;" parent="1" vertex="1">
                    <mxGeometry x="430" y="290" width="180" height="200" as="geometry"/>
                </mxCell>
                <mxCell id="15" value="" style="endArrow=classic;html=1;fontSize=19;exitX=1;exitY=0.5;exitDx=0;exitDy=0;entryX=0.5;entryY=0;entryDx=0;entryDy=0;" parent="1" source="13" target="33" edge="1">
                    <mxGeometry width="50" height="50" relative="1" as="geometry">
                        <mxPoint x="620" y="390" as="sourcePoint"/>
                        <mxPoint x="720" y="485" as="targetPoint"/>
                        <Array as="points">
                            <mxPoint x="720" y="390"/>
                        </Array>
                    </mxGeometry>
                </mxCell>
                <mxCell id="17" value="si" style="text;html=1;align=center;verticalAlign=middle;resizable=0;points=[];autosize=1;strokeColor=none;fillColor=none;fontSize=19;" parent="1" vertex="1">
                    <mxGeometry x="634" y="330" width="40" height="40" as="geometry"/>
                </mxCell>
                <mxCell id="18" value="" style="endArrow=classic;html=1;fontSize=19;entryX=0.5;entryY=0;entryDx=0;entryDy=0;" parent="1" edge="1" target="34">
                    <mxGeometry width="50" height="50" relative="1" as="geometry">
                        <mxPoint x="430" y="390" as="sourcePoint"/>
                        <mxPoint x="320" y="480" as="targetPoint"/>
                        <Array as="points">
                            <mxPoint x="320" y="390"/>
                        </Array>
                    </mxGeometry>
                </mxCell>
                <mxCell id="21" value="no&amp;nbsp;" style="text;html=1;align=center;verticalAlign=middle;resizable=0;points=[];autosize=1;strokeColor=none;fillColor=none;fontSize=19;" parent="1" vertex="1">
                    <mxGeometry x="365" y="340" width="50" height="40" as="geometry"/>
                </mxCell>
                <mxCell id="26" value="" style="endArrow=classic;html=1;fontSize=19;exitX=1;exitY=0.5;exitDx=0;exitDy=0;entryX=0.5;entryY=0;entryDx=0;entryDy=0;" parent="1" source="34" edge="1" target="35">
                    <mxGeometry width="50" height="50" relative="1" as="geometry">
                        <mxPoint x="320" y="620" as="sourcePoint"/>
                        <mxPoint x="480" y="610" as="targetPoint"/>
                        <Array as="points">
                            <mxPoint x="480" y="535"/>
                        </Array>
                    </mxGeometry>
                </mxCell>
                <mxCell id="27" value="" style="endArrow=classic;html=1;fontSize=19;exitX=0.5;exitY=1;exitDx=0;exitDy=0;" parent="1" edge="1">
                    <mxGeometry width="50" height="50" relative="1" as="geometry">
                        <mxPoint x="720" y="585" as="sourcePoint"/>
                        <mxPoint x="510" y="910" as="targetPoint"/>
                        <Array as="points">
                            <mxPoint x="720" y="660"/>
                            <mxPoint x="720" y="910"/>
                        </Array>
                    </mxGeometry>
                </mxCell>
                <mxCell id="32" value="" style="edgeStyle=none;html=1;fontSize=19;exitX=0.5;exitY=1;exitDx=0;exitDy=0;" parent="1" source="41" edge="1">
                    <mxGeometry relative="1" as="geometry">
                        <mxPoint x="520" y="790" as="sourcePoint"/>
                        <mxPoint x="510" y="910" as="targetPoint"/>
                        <Array as="points">
                            <mxPoint x="320" y="910"/>
                        </Array>
                    </mxGeometry>
                </mxCell>
                <mxCell id="31" value="FIN" style="ellipse;whiteSpace=wrap;html=1;fontSize=19;fillColor=#fa6800;fontColor=#000000;strokeColor=#C73500;" parent="1" vertex="1">
                    <mxGeometry x="430" y="960" width="160" height="110" as="geometry"/>
                </mxCell>
                <mxCell id="33" value="&quot;iguales&quot;" style="shape=document;whiteSpace=wrap;html=1;boundedLbl=1;fillColor=#1ba1e2;fontColor=#ffffff;strokeColor=#006EAF;" vertex="1" parent="1">
                    <mxGeometry x="634" y="484" width="170" height="100" as="geometry"/>
                </mxCell>
                <mxCell id="34" value="a &amp;gt; b" style="rhombus;whiteSpace=wrap;html=1;fillColor=#d80073;fontColor=#ffffff;strokeColor=#A50040;" vertex="1" parent="1">
                    <mxGeometry x="240" y="455" width="160" height="160" as="geometry"/>
                </mxCell>
                <mxCell id="35" value="mayor = a" style="rounded=0;whiteSpace=wrap;html=1;fillColor=#f0a30a;fontColor=#000000;strokeColor=#BD7000;" vertex="1" parent="1">
                    <mxGeometry x="420" y="615" width="120" height="60" as="geometry"/>
                </mxCell>
                <mxCell id="36" value="" style="endArrow=classic;html=1;exitX=0;exitY=0.5;exitDx=0;exitDy=0;" edge="1" parent="1" source="34" target="37">
                    <mxGeometry width="50" height="50" relative="1" as="geometry">
                        <mxPoint x="290" y="600" as="sourcePoint"/>
                        <mxPoint x="160" y="610" as="targetPoint"/>
                        <Array as="points">
                            <mxPoint x="160" y="535"/>
                        </Array>
                    </mxGeometry>
                </mxCell>
                <mxCell id="37" value="mayor = b" style="rounded=0;whiteSpace=wrap;html=1;fillColor=#647687;fontColor=#ffffff;strokeColor=#314354;" vertex="1" parent="1">
                    <mxGeometry x="100" y="615" width="120" height="60" as="geometry"/>
                </mxCell>
                <mxCell id="38" value="" style="endArrow=classic;html=1;exitX=0.5;exitY=1;exitDx=0;exitDy=0;" edge="1" parent="1" source="37">
                    <mxGeometry width="50" height="50" relative="1" as="geometry">
                        <mxPoint x="290" y="600" as="sourcePoint"/>
                        <mxPoint x="320" y="740" as="targetPoint"/>
                        <Array as="points">
                            <mxPoint x="160" y="740"/>
                        </Array>
                    </mxGeometry>
                </mxCell>
                <mxCell id="39" value="" style="endArrow=classic;html=1;exitX=0.5;exitY=1;exitDx=0;exitDy=0;" edge="1" parent="1" source="35">
                    <mxGeometry width="50" height="50" relative="1" as="geometry">
                        <mxPoint x="290" y="600" as="sourcePoint"/>
                        <mxPoint x="320" y="740" as="targetPoint"/>
                        <Array as="points">
                            <mxPoint x="480" y="740"/>
                        </Array>
                    </mxGeometry>
                </mxCell>
                <mxCell id="40" value="" style="endArrow=classic;html=1;" edge="1" parent="1" target="41">
                    <mxGeometry width="50" height="50" relative="1" as="geometry">
                        <mxPoint x="320" y="740" as="sourcePoint"/>
                        <mxPoint x="320" y="800" as="targetPoint"/>
                    </mxGeometry>
                </mxCell>
                <mxCell id="41" value="mayor" style="rounded=0;whiteSpace=wrap;html=1;fillColor=#a0522d;fontColor=#ffffff;strokeColor=#6D1F00;" vertex="1" parent="1">
                    <mxGeometry x="260" y="800" width="120" height="60" as="geometry"/>
                </mxCell>
                <mxCell id="42" value="" style="endArrow=classic;html=1;entryX=0.5;entryY=0;entryDx=0;entryDy=0;" edge="1" parent="1" target="31">
                    <mxGeometry width="50" height="50" relative="1" as="geometry">
                        <mxPoint x="510" y="910" as="sourcePoint"/>
                        <mxPoint x="540" y="810" as="targetPoint"/>
                    </mxGeometry>
                </mxCell>
            </root>
        </mxGraphModel>
    </diagram>
</mxfile>